<?xml version="1.0" encoding="utf-8"?>
<!-- Svg Vector Icons : http://www.onlinewebfonts.com/icon -->
<!DOCTYPE svg PUBLIC "-//W3C//DTD SVG 1.1//EN" "http://www.w3.org/Graphics/SVG/1.1/DTD/svg11.dtd">
<svg version="1.1" xmlns="http://www.w3.org/2000/svg" xmlns:xlink="http://www.w3.org/1999/xlink" x="0px" y="0px" viewBox="0 0 1000 1000" enable-background="new 0 0 1000 1000" xml:space="preserve">
<metadata> Svg Vector Icons : http://www.onlinewebfonts.com/icon </metadata>
<g><g transform="translate(0.000000,511.000000) scale(0.100000,-0.100000)"><path d="M3785.1,4936c-53.6-40.8-140.4-114.8-188.8-165.9l-86.8-94.4l1082.1-1082.1L5676.1,2509l173.5,176.1c163.3,168.4,171,181.2,171,298.6c-2.6,237.3-51,298.6-888.1,1138.2C4298,4956.4,4231.7,5007.4,4002,5010C3912.7,5010,3861.6,4992.1,3785.1,4936z"/><path d="M2376.3,3139.3l-1077-1077l888.1-888.1L3073,288.7l242.4,242.4c132.7,132.7,252.7,242.5,268,242.5c12.8,0,1069.3-1043.8,2347.9-2322.4c2541.9-2541.9,2404.1-2419.4,2743.5-2442.3c242.4-17.9,428.8,56.2,615,245c227.1,229.7,293.5,525.7,191.4,844.7c-45.9,135.3-140.4,234.8-2396.4,2493.4l-2353,2355.6l255.2,255.2l255.2,255.2l-880.5,880.5c-484.9,484.9-885.6,880.5-893.2,880.5S2970.9,3734,2376.3,3139.3z"/><path d="M663.9,1832.7c-173.5-183.8-214.4-280.7-181.2-433.9c15.3-66.4,45.9-148,68.9-186.3c23-38.3,387.9-416,809-842.2c832-837.1,908.5-898.3,1140.8-898.3c125,0,135.2,5.1,306.2,171l178.6,171L1906.7,893.5C1312.1,1488.1,819.5,1973,811.9,1973C804.2,1973,737.9,1909.2,663.9,1832.7z"/><path d="M1743.4-2975.5c-168.4-76.6-188.9-125-188.9-441.5v-275.6h1926.8h1926.8v257.8c0,288.4-28.1,365-163.3,446.6c-74,46-163.3,48.5-1738,53.6C1929.7-2927,1842.9-2929.5,1743.4-2975.5z"/><path d="M860.4-4052.4c-142.9-74-173.5-155.7-173.5-469.6v-268h2781.8h2781.8v290.9c0,257.8-5.1,296-56.1,359.8c-114.9,145.5-7.7,140.4-2730.7,140.4C1018.6-4001.4,952.2-4001.4,860.4-4052.4z"/></g></g>
</svg>